<svg width="26" height="29" viewBox="0 0 26 29" fill="none" xmlns="http://www.w3.org/2000/svg">
<path fill-rule="evenodd" clip-rule="evenodd" d="M5.8621 5.57489L22.4092 5.58072L22.4246 0H-0.00242631C-0.0201638 1.83684 -0.0759102 18.7389 0.0738449 18.9824C0.192179 19.1154 5.49366 19.1377 5.63683 19.0017C5.80052 18.8458 5.70955 12.4641 5.70981 12.2906L5.72577 5.73327C5.80432 5.53714 5.70195 5.67752 5.8621 5.57464V5.57489ZM9.16887 15.5026C9.01684 16.3735 10.3074 19.5888 10.6816 20.2871C11.5199 21.8516 12.2722 22.8327 13.3633 23.9403C15.096 25.6986 18.0511 27.3583 20.5741 27.822C20.9017 27.8823 21.6376 27.9728 21.8608 28.0932H25.0933L25.0776 21.826C22.2713 21.6643 20.3987 21.2627 18.5852 19.9091C17.2075 18.8808 15.9101 16.9918 15.4839 14.7361C15.1981 14.5959 15.1416 13.8393 15.115 13.4815C15.0826 13.0454 15.0174 12.6415 15.0055 12.2292L14.9627 9.43179C14.9437 9.20551 9.08323 9.31016 9.00189 9.38542L8.96819 9.48525C8.90458 9.76297 8.94285 12.2852 8.94766 12.544C8.95856 13.1103 9.24945 15.1542 9.16913 15.5026H9.16887Z" fill="#F7B90A"/>
</svg>
