<svg width="147" height="29" viewBox="0 0 147 29" fill="none" xmlns="http://www.w3.org/2000/svg">
<g clip-path="url(#clip0_1199_1418)">
<path fill-rule="evenodd" clip-rule="evenodd" d="M5.8621 5.5802L22.4092 5.58603L22.4246 0.00531006H-0.00242631C-0.0201638 1.84215 -0.0759102 18.7442 0.0738449 18.9877C0.192179 19.1208 5.49366 19.1431 5.63683 19.007C5.80052 18.8511 5.70955 12.4694 5.70981 12.2959L5.72577 5.73858C5.80432 5.54245 5.70195 5.68283 5.8621 5.57995V5.5802ZM9.16887 15.5079C9.01684 16.3788 10.3074 19.5941 10.6816 20.2924C11.5199 21.8569 12.2722 22.838 13.3633 23.9456C15.096 25.7039 18.0511 27.3636 20.5741 27.8273C20.9017 27.8876 21.6376 27.9781 21.8608 28.0985H25.0933L25.0776 21.8313C22.2713 21.6696 20.3987 21.268 18.5852 19.9144C17.2075 18.8861 15.9101 16.9971 15.4839 14.7414C15.1981 14.6012 15.1416 13.8446 15.115 13.4868C15.0826 13.0507 15.0174 12.6468 15.0055 12.2346L14.9627 9.4371C14.9437 9.21082 9.08323 9.31547 9.00189 9.39073L8.96819 9.49056C8.90458 9.76828 8.94285 12.2906 8.94766 12.5493C8.95856 13.1156 9.24945 15.1595 9.16913 15.5079H9.16887Z" fill="#F7B90A"/>
<path d="M31.293 21.9854V7.46621H37.2459C39.1818 7.46621 40.6994 7.92257 41.7986 8.83504C42.8979 9.74776 43.4475 11.013 43.4475 12.6309C43.4475 13.6956 43.1986 14.6116 42.7007 15.3792C42.2028 16.1464 41.4943 16.7343 40.5747 17.142C39.6552 17.55 38.5524 17.754 37.2664 17.754H32.7862L33.9893 16.5301V21.9851H31.293V21.9854ZM40.7927 21.9854L37.1213 16.7171H40.0044L43.6963 21.9854H40.7924H40.7927ZM33.9896 16.8207L32.7865 15.5347H37.142C38.3312 15.5347 39.2267 15.2791 39.828 14.7672C40.4296 14.2556 40.7303 13.5433 40.7303 12.6309C40.7303 11.7045 40.4296 10.9922 39.828 10.4945C39.2264 9.99659 38.3312 9.74776 37.142 9.74776H32.7865L33.9896 8.42024V16.8207ZM45.1237 21.9854V10.9093H47.7164V21.9854H45.1237ZM46.4304 9.08413C45.9464 9.08413 45.5488 8.93209 45.2377 8.62777C44.9265 8.3237 44.7709 7.95729 44.7709 7.52855C44.7709 7.08612 44.9265 6.71617 45.2377 6.41869C45.5488 6.12146 45.9464 5.97272 46.4304 5.97272C46.9144 5.97272 47.312 6.11436 47.6231 6.39791C47.9343 6.68146 48.0899 7.03747 48.0899 7.46621C48.0899 7.92257 47.9378 8.30621 47.6335 8.61738C47.3294 8.92854 46.9283 9.08413 46.4304 9.08413ZM54.7229 22.1306C53.6582 22.1306 52.7006 21.8921 51.8502 21.415C50.9998 20.9378 50.3326 20.2778 49.8487 19.4342C49.3647 18.5907 49.1227 17.5951 49.1227 16.4475C49.1227 15.2999 49.3647 14.3043 49.8487 13.4607C50.3326 12.6172 50.9998 11.9604 51.8502 11.4903C52.7006 11.02 53.6582 10.7852 54.7229 10.7852C55.6493 10.7852 56.4792 10.9891 57.212 11.3971C57.9448 11.8051 58.5256 12.4238 58.9543 13.2535C59.3831 14.0831 59.5974 15.1478 59.5974 16.4477C59.5974 17.7337 59.3899 18.7949 58.9751 19.6316C58.5603 20.4683 57.9864 21.0939 57.2536 21.5087C56.5205 21.9235 55.6772 22.1311 54.7229 22.1311V22.1306ZM55.0341 19.9113C55.6564 19.9113 56.2129 19.773 56.7037 19.4965C57.1945 19.2201 57.5888 18.819 57.886 18.2934C58.1833 17.7679 58.332 17.1527 58.332 16.4475C58.332 15.7286 58.1833 15.1096 57.886 14.5911C57.5888 14.0727 57.1948 13.6751 56.7037 13.3984C56.2129 13.1219 55.6562 12.9836 55.0341 12.9836C54.4118 12.9836 53.8553 13.1219 53.3645 13.3984C52.8737 13.6748 52.4794 14.0724 52.1822 14.5911C51.8849 15.1096 51.7362 15.7286 51.7362 16.4475C51.7362 17.1527 51.8849 17.7679 52.1822 18.2934C52.4794 18.819 52.8734 19.2198 53.3645 19.4965C53.8553 19.7732 54.412 19.9113 55.0341 19.9113ZM58.3943 21.9854V19.3719L58.498 16.4264L58.2905 13.4813V6.59505H60.8624V21.9854H58.3941H58.3943ZM68.4084 22.1306C67.1777 22.1306 66.1026 21.885 65.1832 21.3942C64.2637 20.9034 63.5516 20.2294 63.0469 19.3719C62.5421 18.5146 62.2897 17.5396 62.2897 16.4472C62.2897 15.3412 62.5353 14.3628 63.0261 13.5124C63.5169 12.662 64.1945 11.9949 65.0588 11.5109C65.9231 11.0269 66.9083 10.7849 68.0147 10.7849C69.0931 10.7849 70.0542 11.02 70.8978 11.4901C71.7413 11.9604 72.4049 12.624 72.8889 13.4813C73.3729 14.3385 73.6149 15.348 73.6149 16.5095C73.6149 16.6203 73.6116 16.7447 73.6045 16.8828C73.5977 17.0211 73.5873 17.1524 73.5733 17.2771H64.3432V15.5555H72.2042L71.1879 16.0947C71.2018 15.4587 71.0703 14.8987 70.7939 14.4148C70.5174 13.9308 70.1406 13.5504 69.6635 13.274C69.1863 12.9973 68.6367 12.8592 68.0147 12.8592C67.3786 12.8592 66.8219 12.9975 66.345 13.274C65.8679 13.5504 65.4947 13.9343 65.225 14.4251C64.9554 14.916 64.8206 15.4932 64.8206 16.1571V16.5719C64.8206 17.2355 64.9727 17.8234 65.277 18.3347C65.5813 18.8463 66.0098 19.2404 66.563 19.5171C67.1161 19.7938 67.7521 19.9319 68.4713 19.9319C69.0936 19.9319 69.6536 19.8351 70.1513 19.6415C70.6492 19.4479 71.0916 19.1436 71.4788 18.7288L72.8684 20.3259C72.3705 20.9067 71.7448 21.3526 70.9913 21.6638C70.2377 21.975 69.3769 22.1306 68.4089 22.1306H68.4084ZM81.7402 21.9854L75.3932 7.46621H78.3179L83.9802 20.5958H82.3002L88.0248 7.46621H90.7212L84.395 21.9854H81.7399H81.7402ZM95.301 22.1306C94.0703 22.1306 92.9951 21.885 92.0758 21.3942C91.1562 20.9034 90.4442 20.2294 89.9395 19.3719C89.4347 18.5146 89.1823 17.5396 89.1823 16.4472C89.1823 15.3412 89.4279 14.3628 89.9187 13.5124C90.4095 12.662 91.0871 11.9949 91.9514 11.5109C92.8157 11.0269 93.8009 10.7849 94.9072 10.7849C95.9857 10.7849 96.9468 11.02 97.7903 11.4901C98.6339 11.9604 99.2975 12.624 99.7815 13.4813C100.265 14.3385 100.507 15.348 100.507 16.5095C100.507 16.6203 100.504 16.7447 100.497 16.8828C100.49 17.0211 100.48 17.1524 100.466 17.2771H91.2358V15.5555H99.0968L98.0805 16.0947C98.0944 15.4587 97.9629 14.8987 97.6864 14.4148C97.41 13.9308 97.0332 13.5504 96.556 13.274C96.0789 12.9973 95.5293 12.8592 94.9072 12.8592C94.2712 12.8592 93.7145 12.9975 93.2376 13.274C92.7605 13.5504 92.3872 13.9343 92.1176 14.4251C91.848 14.916 91.7132 15.4932 91.7132 16.1571V16.5719C91.7132 17.2355 91.8652 17.8234 92.1696 18.3347C92.4739 18.8463 92.9024 19.2404 93.4555 19.5171C94.0087 19.7938 94.6447 19.9319 95.3638 19.9319C95.9862 19.9319 96.5462 19.8351 97.0438 19.6415C97.5417 19.4479 97.9842 19.1436 98.3714 18.7288L99.761 20.3259C99.263 20.9067 98.6374 21.3526 97.8838 21.6638C97.1302 21.975 96.2695 22.1306 95.3015 22.1306H95.301ZM101.914 21.9854V10.9093H104.382V13.8961L103.946 12.9833C104.333 12.2781 104.897 11.7354 105.637 11.355C106.377 10.9747 107.23 10.7846 108.198 10.7846C109.083 10.7846 109.875 10.9575 110.573 11.3031C111.271 11.6487 111.821 12.1778 112.222 12.8898C112.623 13.6019 112.823 14.5181 112.823 15.6381V21.9851H110.231V15.9701C110.231 14.9884 109.999 14.2554 109.536 13.7714C109.073 13.2874 108.426 13.0454 107.596 13.0454C106.988 13.0454 106.449 13.1698 105.978 13.4189C105.508 13.6677 105.145 14.0377 104.889 14.5285C104.634 15.0193 104.506 15.6384 104.506 16.3849V21.9851H101.913L101.914 21.9854ZM119.747 22.1306C118.683 22.1306 117.725 21.8921 116.875 21.415C116.024 20.9378 115.357 20.2778 114.873 19.4342C114.389 18.5907 114.147 17.5951 114.147 16.4475C114.147 15.2999 114.389 14.3043 114.873 13.4607C115.357 12.6172 116.024 11.9604 116.875 11.4903C117.725 11.02 118.683 10.7852 119.747 10.7852C120.674 10.7852 121.504 10.9891 122.236 11.3971C122.969 11.8051 123.55 12.4238 123.979 13.2535C124.407 14.0831 124.622 15.1478 124.622 16.4477C124.622 17.7337 124.414 18.7949 123.999 19.6316C123.585 20.4683 123.011 21.0939 122.278 21.5087C121.545 21.9235 120.702 22.1311 119.747 22.1311V22.1306ZM120.058 19.9113C120.681 19.9113 121.237 19.773 121.728 19.4965C122.219 19.2201 122.613 18.819 122.91 18.2934C123.208 17.7679 123.356 17.1527 123.356 16.4475C123.356 15.7286 123.208 15.1096 122.91 14.5911C122.613 14.0727 122.219 13.6751 121.728 13.3984C121.237 13.1219 120.681 12.9836 120.058 12.9836C119.436 12.9836 118.88 13.1219 118.389 13.3984C117.898 13.6748 117.504 14.0724 117.207 14.5911C116.909 15.1096 116.761 15.7286 116.761 16.4475C116.761 17.1527 116.909 17.7679 117.207 18.2934C117.504 18.819 117.898 19.2198 118.389 19.4965C118.88 19.7732 119.436 19.9113 120.058 19.9113ZM123.419 21.9854V19.3719L123.522 16.4264L123.315 13.4813V6.59505H125.887V21.9854H123.418H123.419ZM133.205 22.1306C132.071 22.1306 131.062 21.885 130.176 21.3942C129.291 20.9034 128.593 20.2294 128.081 19.3719C127.57 18.5146 127.314 17.5396 127.314 16.4472C127.314 15.3412 127.57 14.3628 128.081 13.5124C128.593 12.662 129.291 11.9949 130.176 11.5109C131.062 11.0269 132.071 10.7849 133.205 10.7849C134.353 10.7849 135.372 11.0269 136.264 11.5109C137.156 11.9949 137.855 12.6585 138.359 13.502C138.864 14.3456 139.116 15.3272 139.116 16.4472C139.116 17.5396 138.864 18.5144 138.359 19.3719C137.854 20.2291 137.156 20.9034 136.264 21.3942C135.372 21.885 134.353 22.1306 133.205 22.1306ZM133.205 19.9113C133.841 19.9113 134.408 19.773 134.906 19.4965C135.403 19.2201 135.794 18.819 136.077 18.2934C136.361 17.7679 136.503 17.1527 136.503 16.4475C136.503 15.7286 136.361 15.1096 136.077 14.5911C135.794 14.0727 135.403 13.6751 134.906 13.3984C134.408 13.1219 133.848 12.9836 133.226 12.9836C132.59 12.9836 132.026 13.1219 131.535 13.3984C131.044 13.6748 130.654 14.0724 130.363 14.5911C130.073 15.1096 129.928 15.7286 129.928 16.4475C129.928 17.1527 130.073 17.7679 130.363 18.2934C130.654 18.819 131.044 19.2198 131.535 19.4965C132.026 19.7732 132.583 19.9113 133.205 19.9113ZM140.522 21.9854V10.9093H142.991V13.9584L142.7 13.0664C143.032 12.32 143.554 11.7529 144.266 11.3657C144.979 10.9785 145.867 10.7849 146.932 10.7849V13.2532C146.821 13.2256 146.717 13.2081 146.621 13.2013C146.524 13.1944 146.427 13.1909 146.33 13.1909C145.348 13.1909 144.567 13.4777 143.986 14.0516C143.406 14.6256 143.115 15.4795 143.115 16.6132V21.9851H140.522V21.9854Z" fill="#373435"/>
</g>
<defs>
<clipPath id="clip0_1199_1418">
<rect width="147" height="28.0929" fill="white"/>
</clipPath>
</defs>
</svg>
