<svg width="209" height="40" viewBox="0 0 209 40" fill="none" xmlns="http://www.w3.org/2000/svg">
<g clip-path="url(#clip0_1279_9086)">
<path fill-rule="evenodd" clip-rule="evenodd" d="M8.33436 7.94537L31.8604 7.95367L31.8824 0.00756836H-0.00363567C-0.0288543 2.62295 -0.108113 26.6889 0.104804 27.0356C0.273049 27.225 7.81053 27.2568 8.01408 27.063C8.24682 26.8412 8.11748 17.7546 8.11784 17.5075L8.14054 8.17086C8.25222 7.89161 8.10667 8.09149 8.33436 7.94501V7.94537ZM13.0358 22.0809C12.8197 23.3209 14.6545 27.899 15.1866 28.8934C16.3784 31.1209 17.448 32.5179 18.9993 34.0949C21.4628 36.5984 25.6642 38.9616 29.2514 39.6219C29.7172 39.7078 30.7634 39.8366 31.0808 40.0079H35.6767L35.6544 31.0844C31.6645 30.8543 29.0021 30.2824 26.4237 28.355C24.4649 26.891 22.6203 24.2012 22.0144 20.9895C21.608 20.7899 21.5277 19.7126 21.4898 19.2032C21.4437 18.5823 21.3511 18.0072 21.3342 17.4201L21.2733 13.437C21.2463 13.1148 12.9141 13.2638 12.7984 13.371L12.7505 13.5131C12.6601 13.9086 12.7145 17.4999 12.7213 17.8682C12.7368 18.6746 13.1504 21.5848 13.0362 22.0809H13.0358Z" fill="#F7B90A"/>
<path d="M44.4883 31.3038V10.6307H52.952C55.7044 10.6307 57.8621 11.2805 59.4249 12.5797C60.9877 13.8793 61.7692 15.6807 61.7692 17.9844C61.7692 19.5005 61.4154 20.8047 60.7075 21.8976C59.9995 22.99 58.9922 23.8271 57.6848 24.4076C56.3774 24.9885 54.8095 25.2789 52.9812 25.2789H46.6113L48.3219 23.5363V31.3034H44.4883V31.3038ZM57.9947 31.3038L52.7748 23.8025H56.8739L62.1229 31.3038H57.9943H57.9947ZM48.3222 23.9501L46.6117 22.1191H52.8043C54.495 22.1191 55.7682 21.755 56.6231 21.0262C57.4784 20.2978 57.906 19.2836 57.906 17.9844C57.906 16.6653 57.4784 15.6512 56.6231 14.9426C55.7678 14.2336 54.495 13.8793 52.8043 13.8793H46.6117L48.3222 11.9891V23.9501ZM64.1523 31.3038V15.5332H67.8386V31.3038H64.1523ZM66.0102 12.9344C65.3221 12.9344 64.7568 12.7179 64.3144 12.2846C63.872 11.8516 63.6508 11.3299 63.6508 10.7195C63.6508 10.0895 63.872 9.56278 64.3144 9.13921C64.7568 8.716 65.3221 8.50421 66.0102 8.50421C66.6983 8.50421 67.2636 8.70589 67.706 9.10962C68.1484 9.51335 68.3696 10.0203 68.3696 10.6307C68.3696 11.2805 68.1534 11.8268 67.7208 12.2698C67.2884 12.7129 66.7181 12.9344 66.0102 12.9344ZM77.8003 31.5105C76.2864 31.5105 74.925 31.171 73.7159 30.4916C72.5069 29.8123 71.5583 28.8724 70.8702 27.6713C70.1821 26.4702 69.838 25.0527 69.838 23.4187C69.838 21.7846 70.1821 20.3671 70.8702 19.166C71.5583 17.9649 72.5069 17.0297 73.7159 16.3605C74.925 15.6908 76.2864 15.3564 77.8003 15.3564C79.1174 15.3564 80.2973 15.6468 81.3392 16.2277C82.3811 16.8086 83.2068 17.6896 83.8164 18.8709C84.4259 20.0521 84.7307 21.5682 84.7307 23.419C84.7307 25.25 84.4356 26.761 83.8459 27.9524C83.2561 29.1437 82.4401 30.0345 81.3982 30.6251C80.356 31.2157 79.157 31.5112 77.8003 31.5112V31.5105ZM78.2427 28.3507C79.1275 28.3507 79.9186 28.1537 80.6165 27.7601C81.3143 27.3665 81.8749 26.7953 82.2975 26.047C82.7201 25.2987 82.9315 24.4227 82.9315 23.4187C82.9315 22.3951 82.7201 21.5137 82.2975 20.7755C81.8749 20.0373 81.3147 19.4712 80.6165 19.0772C79.9186 18.6836 79.1271 18.4866 78.2427 18.4866C77.3579 18.4866 76.5667 18.6836 75.8689 19.0772C75.171 19.4709 74.6105 20.0369 74.1879 20.7755C73.7653 21.5137 73.5538 22.3951 73.5538 23.4187C73.5538 24.4227 73.7653 25.2987 74.1879 26.047C74.6105 26.7953 75.1707 27.3661 75.8689 27.7601C76.5667 28.1541 77.3582 28.3507 78.2427 28.3507ZM83.0202 31.3038V27.5826L83.1675 23.3887L82.8725 19.1952V9.39032H86.5292V31.3038H83.0198H83.0202ZM97.2579 31.5105C95.5081 31.5105 93.9795 31.1609 92.6724 30.4621C91.365 29.7632 90.3527 28.8035 89.635 27.5826C88.9174 26.362 88.5585 24.9737 88.5585 23.4183C88.5585 21.8434 88.9076 20.4504 89.6055 19.2396C90.3033 18.0288 91.2666 17.0788 92.4955 16.3897C93.7244 15.7006 95.1251 15.356 96.698 15.356C98.2313 15.356 99.5978 15.6908 100.797 16.3601C101.996 17.0297 102.94 17.9747 103.628 19.1952C104.316 20.4158 104.66 21.8532 104.66 23.5071C104.66 23.6647 104.656 23.8419 104.645 24.0385C104.636 24.2355 104.621 24.4224 104.601 24.5999H91.4781V22.1487H102.655L101.21 22.9164C101.229 22.0108 101.042 21.2135 100.649 20.5244C100.256 19.8353 99.7206 19.2937 99.0423 18.9001C98.3639 18.5061 97.5825 18.3095 96.698 18.3095C95.7938 18.3095 95.0022 18.5065 94.3242 18.9001C93.6458 19.2937 93.1152 19.8403 92.7319 20.5392C92.3485 21.238 92.1569 22.0599 92.1569 23.0052V23.5958C92.1569 24.5407 92.373 25.3778 92.8057 26.1058C93.2384 26.8343 93.8476 27.3953 94.6341 27.7893C95.4205 28.1833 96.3248 28.3799 97.3472 28.3799C98.232 28.3799 99.0282 28.2421 99.7358 27.9665C100.444 27.6908 101.073 27.2575 101.623 26.6669L103.599 28.941C102.891 29.7679 102.001 30.4029 100.93 30.8459C99.8586 31.289 98.6348 31.5105 97.2586 31.5105H97.2579ZM116.213 31.3038L107.189 10.6307H111.347L119.397 29.3252H117.009L125.148 10.6307H128.981L119.987 31.3038H116.212H116.213ZM135.493 31.5105C133.743 31.5105 132.214 31.1609 130.907 30.4621C129.6 29.7632 128.588 28.8035 127.87 27.5826C127.152 26.362 126.794 24.9737 126.794 23.4183C126.794 21.8434 127.143 20.4504 127.84 19.2396C128.538 18.0288 129.502 17.0788 130.731 16.3897C131.959 15.7006 133.36 15.356 134.933 15.356C136.466 15.356 137.833 15.6908 139.032 16.3601C140.231 17.0297 141.175 17.9747 141.863 19.1952C142.551 20.4158 142.895 21.8532 142.895 23.5071C142.895 23.6647 142.891 23.8419 142.881 24.0385C142.871 24.2355 142.856 24.4224 142.836 24.5999H129.713V22.1487H140.89L139.445 22.9164C139.464 22.0108 139.277 21.2135 138.884 20.5244C138.491 19.8353 137.956 19.2937 137.277 18.9001C136.599 18.5061 135.817 18.3095 134.933 18.3095C134.029 18.3095 133.237 18.5065 132.559 18.9001C131.881 19.2937 131.35 19.8403 130.967 20.5392C130.584 21.238 130.392 22.0599 130.392 23.0052V23.5958C130.392 24.5407 130.608 25.3778 131.041 26.1058C131.473 26.8343 132.083 27.3953 132.869 27.7893C133.656 28.1833 134.56 28.3799 135.582 28.3799C136.467 28.3799 137.263 28.2421 137.971 27.9665C138.679 27.6908 139.308 27.2575 139.858 26.6669L141.834 28.941C141.126 29.7679 140.237 30.4029 139.165 30.8459C138.094 31.289 136.87 31.5105 135.494 31.5105H135.493ZM144.894 31.3038V15.5332H148.404V19.7858L147.784 18.4863C148.335 17.4822 149.136 16.7094 150.188 16.1678C151.24 15.6263 152.453 15.3557 153.83 15.3557C155.088 15.3557 156.214 15.6017 157.206 16.0938C158.199 16.586 158.98 17.3393 159.55 18.3531C160.12 19.367 160.406 20.6716 160.406 22.2663V31.3034H156.719V22.7389C156.719 21.3412 156.39 20.2974 155.732 19.6083C155.073 18.9192 154.154 18.5747 152.974 18.5747C152.109 18.5747 151.342 18.7518 150.674 19.1065C150.005 19.4608 149.489 19.9875 149.125 20.6864C148.762 21.3852 148.58 22.2666 148.58 23.3295V31.3034H144.894L144.894 31.3038ZM170.25 31.5105C168.736 31.5105 167.375 31.171 166.166 30.4916C164.957 29.8123 164.008 28.8724 163.32 27.6713C162.632 26.4702 162.288 25.0527 162.288 23.4187C162.288 21.7846 162.632 20.3671 163.32 19.166C164.008 17.9649 164.957 17.0297 166.166 16.3605C167.375 15.6908 168.736 15.3564 170.25 15.3564C171.567 15.3564 172.747 15.6468 173.789 16.2277C174.831 16.8086 175.656 17.6896 176.266 18.8709C176.876 20.0521 177.18 21.5682 177.18 23.419C177.18 25.25 176.885 26.761 176.296 27.9524C175.706 29.1437 174.89 30.0345 173.848 30.6251C172.806 31.2157 171.607 31.5112 170.25 31.5112V31.5105ZM170.692 28.3507C171.577 28.3507 172.368 28.1537 173.066 27.7601C173.764 27.3665 174.325 26.7953 174.747 26.047C175.17 25.2987 175.381 24.4227 175.381 23.4187C175.381 22.3951 175.17 21.5137 174.747 20.7755C174.325 20.0373 173.764 19.4712 173.066 19.0772C172.368 18.6836 171.577 18.4866 170.692 18.4866C169.808 18.4866 169.016 18.6836 168.319 19.0772C167.621 19.4709 167.06 20.0369 166.638 20.7755C166.215 21.5137 166.003 22.3951 166.003 23.4187C166.003 24.4227 166.215 25.2987 166.638 26.047C167.06 26.7953 167.62 27.3661 168.319 27.7601C169.016 28.1541 169.808 28.3507 170.692 28.3507ZM175.47 31.3038V27.5826L175.617 23.3887L175.322 19.1952V9.39032H178.979V31.3038H175.469H175.47ZM189.383 31.5105C187.771 31.5105 186.336 31.1609 185.078 30.4621C183.819 29.7632 182.827 28.8035 182.099 27.5826C181.372 26.362 181.008 24.9737 181.008 23.4183C181.008 21.8434 181.372 20.4504 182.099 19.2396C182.826 18.0288 183.819 17.0788 185.078 16.3897C186.336 15.7006 187.771 15.356 189.383 15.356C191.015 15.356 192.465 15.7006 193.733 16.3897C195.001 17.0788 195.994 18.0237 196.711 19.2248C197.429 20.4259 197.788 21.8236 197.788 23.4183C197.788 24.9737 197.429 26.3616 196.711 27.5826C195.994 28.8031 195.001 29.7632 193.733 30.4621C192.465 31.1609 191.015 31.5105 189.383 31.5105ZM189.383 28.3507C190.288 28.3507 191.094 28.1537 191.801 27.7601C192.509 27.3665 193.064 26.7953 193.468 26.047C193.871 25.2987 194.072 24.4227 194.072 23.4187C194.072 22.3951 193.871 21.5137 193.468 20.7755C193.064 20.0373 192.509 19.4712 191.801 19.0772C191.093 18.6836 190.297 18.4866 189.413 18.4866C188.509 18.4866 187.707 18.6836 187.009 19.0772C186.312 19.4709 185.756 20.0369 185.343 20.7755C184.93 21.5137 184.724 22.3951 184.724 23.4187C184.724 24.4227 184.93 25.2987 185.343 26.047C185.756 26.7953 186.311 27.3661 187.009 27.7601C187.707 28.1541 188.499 28.3507 189.383 28.3507ZM199.787 31.3038V15.5332H203.297V19.8746L202.884 18.6046C203.355 17.5417 204.098 16.7343 205.11 16.183C206.123 15.6317 207.386 15.356 208.9 15.356V18.8705C208.743 18.8312 208.595 18.8063 208.458 18.7965C208.32 18.7868 208.182 18.7818 208.045 18.7818C206.649 18.7818 205.538 19.1902 204.712 20.0074C203.887 20.8246 203.474 22.0404 203.474 23.6546V31.3034H199.787V31.3038Z" fill="white"/>
</g>
<defs>
<clipPath id="clip0_1279_9086">
<rect width="209" height="40" fill="white"/>
</clipPath>
</defs>
</svg>
