<svg width="91" height="84" viewBox="0 0 91 84" fill="none" xmlns="http://www.w3.org/2000/svg">
<path d="M104.318 52.1005L102.3 52.0859C100.467 52.0731 98.152 50.7086 97.2467 49.1066L87.483 31.8407C86.2807 29.7143 83.4313 28.0483 80.9965 28.0483H78.2087V22.7509H79.0525C81.9351 22.7509 84.2806 20.3957 84.2806 17.5002V5.25073C84.2806 2.35562 81.9351 0 79.0525 0H41.7564C38.8738 0 36.5283 2.35517 36.5283 5.25073V17.5002C36.5283 20.3953 38.8733 22.7509 41.7564 22.7509H42.6007V28.0478H37.9134C35.4955 28.0478 32.575 29.6457 31.2638 31.6861L19.7975 49.5322C18.761 51.1451 16.313 52.8739 14.451 53.3067L4.40208 55.6463C1.9746 56.211 0 58.7066 0 61.2091V78.8013C0 81.3976 2.10308 83.5098 4.6882 83.5098H12.1775C13.7657 88.9861 18.8047 93 24.7627 93C30.7207 93 35.7602 88.9861 37.3489 83.5098H65.6572C67.2454 88.9861 72.2849 93 78.2429 93C84.2008 93 89.2399 88.9861 90.8286 83.5098H104.312C106.897 83.5098 109 81.3976 109 78.8013V56.837C109 54.2434 106.9 52.1189 104.318 52.1005ZM70.7053 6.11236C70.7053 5.79709 70.96 5.5413 71.2739 5.5413H79.2183C79.5318 5.5413 79.7874 5.79754 79.7874 6.11236V7.51072C79.7874 7.826 79.5318 8.08178 79.2183 8.08178H76.8856C76.7813 8.08178 76.6956 8.16735 76.6956 8.27214V16.7232C76.6956 17.038 76.4405 17.2942 76.127 17.2942H74.3151C74.0016 17.2942 73.746 17.038 73.746 16.7232V8.27214C73.746 8.16872 73.6594 8.08178 73.5565 8.08178H71.2739C70.9604 8.08178 70.7053 7.82554 70.7053 7.51072V6.11236ZM59.9648 6.11236C59.9648 5.79709 60.2204 5.5413 60.5338 5.5413H62.765C63.0392 5.5413 63.3604 5.72891 63.4958 5.96868L65.4731 9.4742C65.5774 9.65861 65.7414 9.9629 65.838 10.151C65.8449 10.1633 66.6112 11.5832 67.1351 12.7967C67.0786 11.8989 66.9852 10.2402 66.9852 9.05551V6.1119C66.9852 5.79663 67.2408 5.54084 67.5543 5.54084H69.1476C69.4615 5.54084 69.7166 5.79709 69.7166 6.1119V16.7223C69.7166 17.0371 69.461 17.2933 69.1476 17.2933H67.219C66.9438 17.2933 66.6239 17.1039 66.4905 16.8623L64.4379 13.1426C64.3363 12.9578 64.1732 12.6553 64.0748 12.4691C64.0662 12.453 63.195 10.852 62.6205 9.56435C62.646 10.4305 62.6948 12.3016 62.6948 13.678V16.7218C62.6948 17.0366 62.4392 17.2929 62.1257 17.2929H60.5338C60.2199 17.2929 59.9648 17.0366 59.9648 16.7218V6.11236ZM50.9898 6.11236C50.9898 5.79709 51.2454 5.5413 51.5588 5.5413H57.7888C58.1023 5.5413 58.3574 5.79754 58.3574 6.11236V7.46039C58.3574 7.7752 58.1023 8.03191 57.7888 8.03191H54.1294C54.025 8.03191 53.9398 8.11747 53.9398 8.22226V9.82196C53.9398 9.92675 54.025 10.0128 54.1294 10.0128H57.5359C57.8494 10.0128 58.105 10.269 58.105 10.5838V11.9145C58.105 12.2297 57.8494 12.4855 57.5359 12.4855H54.1294C54.025 12.4855 53.9398 12.5716 53.9398 12.6763V14.6133C53.9398 14.7181 54.025 14.8041 54.1294 14.8041H58.0244C58.3378 14.8041 58.593 15.0608 58.593 15.3756V16.7223C58.593 17.0371 58.3378 17.2933 58.0244 17.2933H51.5593C51.2458 17.2933 50.9902 17.0371 50.9902 16.7223L50.9898 6.11236ZM41.591 17.2938C41.2776 17.2938 41.0224 17.0375 41.0224 16.7227V6.51732C41.0224 6.14164 41.1892 5.67537 41.9833 5.58934C42.7907 5.50332 43.7028 5.45802 44.6213 5.45802C46.4223 5.45802 47.5887 5.74629 48.4019 6.39285C49.1405 6.98725 49.5141 7.83744 49.5141 8.9219C49.5141 10.3239 48.6115 11.342 47.6438 11.7955C47.6711 11.8216 47.7026 11.8495 47.7363 11.8802C47.7764 11.9154 48.7227 12.7592 49.0202 13.8487C49.1168 14.2005 49.2138 14.5671 49.3081 14.924C49.4425 15.4328 49.571 15.9201 49.6858 16.31C49.7428 16.5054 49.838 16.8316 49.6635 17.065C49.5487 17.2197 49.3528 17.2942 49.0653 17.2942H47.5203C47.2328 17.2942 46.9308 17.0819 46.8328 16.8106C46.8201 16.7744 46.5011 15.8945 46.1676 14.4998C45.8669 13.0918 45.3963 12.8374 44.5174 12.8223H44.127C44.024 12.8223 43.937 12.9097 43.937 13.0131V16.7227C43.937 17.0375 43.6818 17.2938 43.3688 17.2938H41.591ZM47.4565 22.7509H73.3528V28.0478H47.4565V22.7509ZM24.7627 86.3738C21.1662 86.3738 18.2512 83.4453 18.2512 79.8336C18.2512 76.221 21.1662 73.2929 24.7627 73.2929C28.3593 73.2929 31.2747 76.221 31.2747 79.8336C31.2747 83.4453 28.3593 86.3738 24.7627 86.3738ZM56.3464 53.3127H29.0678C27.3547 53.3127 26.684 52.1115 27.5766 50.6432L35.8846 36.9766C36.7776 35.5082 38.9093 34.3071 40.622 34.3071H56.3464V53.3127ZM78.2424 86.3738C74.6458 86.3738 71.7299 83.4453 71.7299 79.8336C71.7299 76.221 74.6458 73.2929 78.2424 73.2929C81.8385 73.2929 84.7539 76.221 84.7539 79.8336C84.7539 83.4453 81.8385 86.3738 78.2424 86.3738ZM87.7386 53.3127H63.8397V34.3071H77.5412C79.2543 34.3071 81.3205 35.5462 82.1333 37.0608L89.3756 50.5594C90.1884 52.0736 89.4517 53.3127 87.7386 53.3127Z" fill="#FFD247"/>
<path d="M44.127 10.5875H44.3766C44.5657 10.5875 44.8792 10.539 45.0614 10.4818C45.4888 10.3463 46.5986 9.84072 46.5986 9.1397C46.5986 8.00674 45.6778 7.75598 44.9051 7.74454C44.3215 7.74454 44.157 7.76696 44.1507 7.76834C44.0372 7.78572 43.937 7.90286 43.937 8.01909V10.3967C43.937 10.5001 44.024 10.5875 44.127 10.5875Z" fill="#FFD247"/>
</svg>
