<svg width="31" height="24" viewBox="0 0 31 24" fill="none" xmlns="http://www.w3.org/2000/svg">
<g clip-path="url(#clip0_1351_2137)">
<path d="M5.61331 23.8808V22.2923C5.61331 21.6833 5.24258 21.2863 4.60712 21.2863C4.28945 21.2863 3.94525 21.3921 3.70694 21.7363C3.5217 21.4451 3.25697 21.2863 2.85983 21.2863C2.59498 21.2863 2.33038 21.3656 2.11848 21.6569V21.3392H1.5625V23.8808H2.11848V22.4776C2.11848 22.0276 2.35679 21.8157 2.72753 21.8157C3.09802 21.8157 3.28351 22.054 3.28351 22.4776V23.8808H3.83949V22.4776C3.83949 22.0276 4.10409 21.8157 4.44829 21.8157C4.81902 21.8157 5.00427 22.054 5.00427 22.4776V23.8808H5.61331ZM13.847 21.3392H12.9469V20.5714H12.391V21.3392H11.8879V21.8421H12.3908V23.0071C12.3908 23.5897 12.6292 23.9337 13.2646 23.9337C13.5029 23.9337 13.7675 23.8544 13.953 23.7485L13.7941 23.2719C13.6352 23.3778 13.45 23.4043 13.3176 23.4043C13.0528 23.4043 12.9469 23.2455 12.9469 22.9806V21.8421H13.847V21.3392ZM18.5597 21.2861C18.242 21.2861 18.0302 21.4451 17.8978 21.6569V21.3392H17.3418V23.8808H17.8978V22.4512C17.8978 22.0276 18.0831 21.7893 18.4273 21.7893C18.5332 21.7893 18.6656 21.8158 18.7715 21.8422L18.9303 21.3128C18.8244 21.2863 18.6656 21.2863 18.5597 21.2863M11.4378 21.5511C11.173 21.3657 10.8024 21.2864 10.4052 21.2864C9.7699 21.2864 9.34634 21.604 9.34634 22.1071C9.34634 22.5308 9.66401 22.769 10.22 22.8484L10.4847 22.875C10.776 22.9278 10.9348 23.0073 10.9348 23.1397C10.9348 23.3249 10.723 23.4574 10.3523 23.4574C9.98156 23.4574 9.69042 23.3249 9.50505 23.1926L9.24033 23.6162C9.53159 23.828 9.92873 23.9339 10.3258 23.9339C11.0671 23.9339 11.4908 23.5898 11.4908 23.1132C11.4908 22.6631 11.1466 22.4247 10.617 22.3454L10.3523 22.3189C10.114 22.2923 9.92873 22.2395 9.92873 22.0807C9.92873 21.8953 10.114 21.7894 10.4052 21.7894C10.723 21.7894 11.0407 21.9217 11.1995 22.0012L11.4378 21.5511ZM26.2111 21.2864C25.8933 21.2864 25.6815 21.4452 25.5491 21.657V21.3393H24.9931V23.8809H25.5491V22.4513C25.5491 22.0277 25.7345 21.7894 26.0786 21.7894C26.1846 21.7894 26.317 21.8159 26.4229 21.8424L26.5817 21.3129C26.4758 21.2864 26.317 21.2864 26.2111 21.2864ZM19.1157 22.6101C19.1157 23.3779 19.6451 23.9339 20.4659 23.9339C20.8365 23.9339 21.1013 23.8545 21.366 23.6427L21.1013 23.1926C20.8895 23.3515 20.6777 23.4308 20.4394 23.4308C19.9893 23.4308 19.6716 23.1132 19.6716 22.6101C19.6716 22.1336 19.9893 21.8158 20.4394 21.7894C20.6777 21.7894 20.8895 21.8688 21.1013 22.0277L21.366 21.5776C21.1013 21.3657 20.8365 21.2864 20.4659 21.2864C19.6451 21.2864 19.1157 21.8424 19.1157 22.6101ZM24.2519 22.6101V21.3393H23.6959V21.657C23.5106 21.4188 23.2458 21.2864 22.9016 21.2864C22.1868 21.2864 21.6308 21.8424 21.6308 22.6101C21.6308 23.3779 22.1868 23.9339 22.9016 23.9339C23.2723 23.9339 23.5371 23.8016 23.6959 23.5632V23.8809H24.2519V22.6101ZM22.2132 22.6101C22.2132 22.16 22.5045 21.7894 22.981 21.7894C23.4311 21.7894 23.7489 22.1336 23.7489 22.6101C23.7489 23.0602 23.4311 23.4308 22.981 23.4308C22.5045 23.4043 22.2132 23.0602 22.2132 22.6101ZM15.568 21.2864C14.8267 21.2864 14.2971 21.8158 14.2971 22.6101C14.2971 23.4044 14.8265 23.9339 15.5944 23.9339C15.965 23.9339 16.3358 23.828 16.627 23.5898L16.3622 23.1926C16.1504 23.3515 15.8857 23.4574 15.621 23.4574C15.2768 23.4574 14.9326 23.2985 14.8531 22.8483H16.7329V22.6367C16.7594 21.8158 16.2829 21.2864 15.568 21.2864ZM15.5679 21.7629C15.912 21.7629 16.1504 21.9748 16.2032 22.3719H14.8795C14.9324 22.0277 15.1707 21.7629 15.5679 21.7629ZM29.3615 22.6101V20.3333H28.8055V21.657C28.6201 21.4188 28.3554 21.2864 28.0112 21.2864C27.2964 21.2864 26.7404 21.8424 26.7404 22.6101C26.7404 23.3779 27.2964 23.9339 28.0112 23.9339C28.382 23.9339 28.6467 23.8016 28.8055 23.5632V23.8809H29.3615V22.6101ZM27.3229 22.6101C27.3229 22.16 27.6141 21.7894 28.0907 21.7894C28.5408 21.7894 28.8585 22.1336 28.8585 22.6101C28.8585 23.0602 28.5408 23.4308 28.0907 23.4308C27.6141 23.4043 27.3229 23.0602 27.3229 22.6101ZM8.73717 22.6101V21.3393H8.18119V21.657C7.99583 21.4188 7.7311 21.2864 7.3869 21.2864C6.67209 21.2864 6.11611 21.8424 6.11611 22.6101C6.11611 23.3779 6.67209 23.9339 7.3869 23.9339C7.75764 23.9339 8.02236 23.8016 8.18119 23.5632V23.8809H8.73717V22.6101ZM6.67209 22.6101C6.67209 22.16 6.96334 21.7894 7.43985 21.7894C7.88994 21.7894 8.20773 22.1336 8.20773 22.6101C8.20773 23.0602 7.88994 23.4308 7.43985 23.4308C6.96334 23.4043 6.67209 23.0602 6.67209 22.6101Z" fill="white"/>
<path d="M11.2539 2.03857H19.5936V17.0236H11.2539V2.03857Z" fill="#FF5F00"/>
<path d="M11.7816 9.53114C11.7816 6.48651 13.2112 3.78597 15.4086 2.03855C13.7937 0.767759 11.7552 0 9.53126 0C4.26247 0 0 4.26247 0 9.53114C0 14.7998 4.26247 19.0623 9.53114 19.0623C11.7551 19.0623 13.7936 18.2945 15.4086 17.0236C13.2112 15.3027 11.7816 12.5758 11.7816 9.53114Z" fill="#EB001B"/>
<path d="M30.8422 9.53114C30.8422 14.7997 26.5797 19.0623 21.3111 19.0623C19.0871 19.0623 17.0486 18.2945 15.4336 17.0236C17.6575 15.2763 19.0607 12.5758 19.0607 9.53114C19.0607 6.48651 17.631 3.78597 15.4336 2.03855C17.0485 0.767759 19.0871 0 21.3111 0C26.5797 0 30.8422 4.28901 30.8422 9.53114Z" fill="#F79E1B"/>
</g>
<defs>
<clipPath id="clip0_1351_2137">
<rect width="30.8744" height="24" fill="white"/>
</clipPath>
</defs>
</svg>
