<svg width="56" height="18" viewBox="0 0 56 18" fill="none" xmlns="http://www.w3.org/2000/svg">
<path d="M28.7126 5.73135C28.6809 8.2288 30.9383 9.62239 32.6388 10.451C34.3859 11.3012 34.9727 11.8464 34.9658 12.6067C34.9527 13.7702 33.5722 14.2837 32.2803 14.3037C30.0264 14.3386 28.7159 13.6952 27.674 13.2085L26.8621 17.0078C27.9074 17.4895 29.8429 17.9095 31.85 17.928C36.5615 17.928 39.6438 15.6023 39.6605 11.9964C39.6789 7.4201 33.3306 7.1668 33.374 5.1213C33.3889 4.50106 33.9807 3.83918 35.2776 3.6709C35.9195 3.58588 37.6916 3.52082 39.7006 4.44598L40.4892 0.770077C39.4087 0.376678 38.0201 -2.09808e-05 36.2913 -2.09808e-05C31.8567 -2.09808e-05 28.7378 2.35733 28.7126 5.73135ZM48.0661 0.316607C47.2058 0.316607 46.4808 0.818436 46.1572 1.58853L39.4272 17.658H44.1351L45.072 15.0688H50.8251L51.3685 17.658H55.5181L51.897 0.316607H48.0661ZM48.7247 5.00116L50.0834 11.513H46.3624L48.7247 5.00116ZM23.0044 0.316822L19.2934 17.6578H23.7797L27.489 0.316389L23.0044 0.316822ZM16.3676 0.316822L11.698 12.1198L9.80913 2.08386C9.58749 0.963522 8.71222 0.316607 7.74022 0.316607H0.106916L0 0.820171C1.56708 1.16022 3.34757 1.70868 4.42626 2.29552C5.08641 2.654 5.27465 2.96738 5.49152 3.81923L9.06918 17.658H13.8101L21.0786 0.316607L16.3676 0.316822Z" fill="white"/>
</svg>
