<svg width="118" height="21" viewBox="0 0 118 21" fill="none" xmlns="http://www.w3.org/2000/svg">
<path d="M16.7718 2.001H0.982069C0.447079 2.001 0.00075176 2.45183 0.00075176 2.99434V4.77513C0.00075176 5.33116 0.447079 5.76998 0.982821 5.76998H16.7711C17.3196 5.76998 17.7531 5.31764 17.7659 4.77589V3.00711C17.7659 2.45258 17.3196 2.00024 16.7718 2.00024V2.001ZM16.7718 11.9134H0.982069C0.85281 11.9136 0.724883 11.9395 0.605704 11.9895C0.486525 12.0396 0.378464 12.1128 0.287783 12.2049C0.103172 12.3921 -0.000225266 12.6445 3.6851e-07 12.9074V14.6882C3.6851e-07 15.2443 0.446327 15.6823 0.982069 15.6823H16.7703C17.3188 15.6823 17.7524 15.2435 17.7652 14.689V12.9074C17.7652 12.3522 17.3196 11.9134 16.7718 11.9134ZM9.87179 16.8575H0.982821C0.722088 16.8575 0.471874 16.962 0.288535 17.1483C0.103924 17.3355 0.000526126 17.5879 0.00075176 17.8509V19.6317C0.00075176 20.1877 0.447079 20.6257 0.982821 20.6257H9.85901C10.4075 20.6257 10.8411 20.1749 10.8411 19.6324V17.8509C10.8444 17.7215 10.8218 17.5928 10.7745 17.4723C10.7273 17.3518 10.6564 17.242 10.5661 17.1494C10.4758 17.0567 10.3678 16.9831 10.2485 16.9328C10.1293 16.8826 10.0012 16.8575 9.87179 16.8575ZM17.7659 6.95643H0.982821C0.722088 6.95643 0.471874 7.06162 0.288535 7.24721C0.103741 7.43461 0.000328267 7.68733 0.00075176 7.95052V9.73132C0.00075176 10.2866 0.447079 10.7254 0.982821 10.7254H17.7539C18.3024 10.7254 18.7352 10.2738 18.7352 9.73132V7.95052C18.7374 7.82145 18.714 7.69323 18.6664 7.57325C18.6187 7.45327 18.5478 7.34392 18.4577 7.2515C18.3676 7.15907 18.2601 7.08541 18.1413 7.03477C18.0226 6.98413 17.895 6.9575 17.7659 6.95643Z" fill="#00C3F7"/>
<path d="M36.1436 6.01498C35.6586 5.51288 35.0775 5.11348 34.435 4.84056C33.7888 4.56898 33.0952 4.4285 32.3943 4.42729C31.7112 4.41152 31.0341 4.5575 30.4182 4.85333C30.0049 5.05095 29.6323 5.32671 29.3212 5.66634V5.35752C29.3187 5.20032 29.2601 5.04919 29.1559 4.93148C29.1044 4.87006 29.04 4.82082 28.9673 4.7873C28.8945 4.75378 28.8152 4.73681 28.7351 4.73762H26.5284C26.448 4.73549 26.3683 4.75187 26.2954 4.78549C26.2224 4.81911 26.1582 4.86906 26.1076 4.93148C25.998 5.04589 25.9383 5.19911 25.9415 5.35752V20.0592C25.9415 20.214 26.0054 20.3688 26.1068 20.4845C26.1622 20.5393 26.2279 20.5823 26.3002 20.6112C26.3725 20.6402 26.4498 20.6543 26.5276 20.6528H28.7599C28.9132 20.6528 29.0529 20.5882 29.1679 20.4845C29.2281 20.4319 29.2754 20.3662 29.3064 20.2925C29.3374 20.2189 29.3512 20.1391 29.3467 20.0592V15.0377C29.6653 15.3863 30.0733 15.6448 30.5196 15.7996C31.1064 16.019 31.7188 16.1227 32.3432 16.1227C33.057 16.1227 33.7588 15.9927 34.4094 15.7094C35.0629 15.437 35.6532 15.0329 36.1436 14.5222C36.6524 13.99 37.0512 13.3627 37.3172 12.6761C37.6194 11.9077 37.7667 11.0873 37.7508 10.2619C37.7603 9.43302 37.6132 8.60985 37.3172 7.83561C37.0427 7.16082 36.6444 6.54333 36.1428 6.01498H36.1436ZM34.1292 11.3326C34.0124 11.6444 33.8346 11.9297 33.6062 12.1719C33.3799 12.4152 33.1053 12.6086 32.8 12.7396C32.4946 12.8707 32.1653 12.9366 31.833 12.933C31.4889 12.933 31.1575 12.8684 30.8517 12.7264C30.5499 12.5963 30.2766 12.4078 30.0478 12.1719C29.8198 11.9269 29.6382 11.6425 29.512 11.3326C29.2571 10.6679 29.2571 9.93243 29.512 9.26776C29.627 8.95819 29.8186 8.67416 30.0478 8.44123C30.2785 8.20425 30.5511 8.01193 30.8517 7.87393C31.1582 7.72937 31.4943 7.65861 31.833 7.66729C32.1779 7.66729 32.5092 7.73191 32.8278 7.87318C33.1208 8.01594 33.3891 8.19627 33.619 8.42921C33.8482 8.67416 34.0142 8.94466 34.142 9.25499C34.3864 9.92674 34.3819 10.6639 34.1292 11.3326ZM49.7636 4.73687H47.5449C47.468 4.73657 47.3919 4.75248 47.3216 4.78355C47.2513 4.81463 47.1884 4.86016 47.1369 4.9172C47.0797 4.97515 47.0346 5.0438 47.004 5.11923C46.9735 5.19466 46.9581 5.27538 46.9588 5.35676V5.62727C46.6797 5.30276 46.3367 5.0393 45.9512 4.85333C45.3477 4.56019 44.6834 4.41419 44.0127 4.42729C42.5838 4.42974 41.2136 4.99566 40.1995 6.00221C39.6767 6.53313 39.2609 7.15965 38.9748 7.84763C38.6564 8.6164 38.5003 9.44269 38.5164 10.2746C38.5028 11.1064 38.6587 11.9321 38.9748 12.7016C39.2595 13.3873 39.6706 14.0133 40.1867 14.547C40.6798 15.0551 41.2708 15.4577 41.9241 15.7304C42.5774 16.0032 43.2792 16.1405 43.9871 16.134C44.6634 16.1475 45.3261 16.0055 45.9384 15.7079C46.3209 15.5148 46.6778 15.2571 46.9588 14.934V15.2308C46.9588 15.3856 47.0219 15.5404 47.1369 15.6568C47.2518 15.7598 47.3923 15.8244 47.5449 15.8244H49.7636C49.9196 15.8215 50.0691 15.7619 50.1844 15.6568C50.2396 15.6009 50.2829 15.5342 50.3114 15.461C50.34 15.3877 50.3533 15.3094 50.3505 15.2308V5.35676C50.3539 5.19847 50.2945 5.04526 50.1852 4.93073C50.1346 4.8683 50.0703 4.81835 49.9974 4.78474C49.9244 4.75112 49.8439 4.73474 49.7636 4.73687ZM46.7672 11.3198C46.6504 11.6316 46.4726 11.9169 46.2442 12.1591C46.0149 12.3917 45.7476 12.5835 45.4538 12.7264C44.8287 13.0104 44.1013 13.0104 43.4769 12.7264C43.1763 12.5884 42.9038 12.3961 42.673 12.1591C42.4448 11.9169 42.2672 11.6316 42.1508 11.3198C41.9085 10.6572 41.9085 9.93032 42.1508 9.26776C42.265 8.95819 42.4438 8.68693 42.6737 8.44123C42.9029 8.20905 43.1704 8.01594 43.4769 7.87393C43.7875 7.73364 44.1243 7.66109 44.465 7.66109C44.8057 7.66109 45.1425 7.73364 45.453 7.87393C45.7468 8.01594 46.0151 8.19627 46.2442 8.42845C46.4614 8.67416 46.6395 8.94466 46.7672 9.25499C47.0227 9.92598 47.0227 10.6616 46.7672 11.3198ZM71.8907 9.98985C71.571 9.7083 71.2039 9.4857 70.8064 9.33238C70.3854 9.16438 69.9501 9.03461 69.5058 8.94466L67.8092 8.60954C67.3757 8.53215 67.0699 8.41568 66.9038 8.27367C66.8349 8.22565 66.7782 8.16205 66.7383 8.08803C66.6985 8.01401 66.6767 7.93165 66.6747 7.84763C66.6747 7.66729 66.7768 7.51251 66.9932 7.38327C67.2863 7.22848 67.6056 7.15034 67.937 7.17664C68.3705 7.17664 68.804 7.2668 69.1993 7.43436C69.5825 7.60267 69.9649 7.79653 70.309 8.02796C70.8064 8.33829 71.2272 8.28644 71.5202 7.9378L72.337 7.00908C72.4895 6.85354 72.5789 6.64766 72.5924 6.42825C72.5856 6.31521 72.5547 6.20493 72.5018 6.10477C72.4489 6.00461 72.3753 5.91688 72.2859 5.84742C71.941 5.55062 71.3932 5.22753 70.6659 4.91795C69.9394 4.60838 69.0204 4.44007 67.937 4.44007C67.2756 4.43121 66.617 4.52707 65.9857 4.72409C65.4459 4.89057 64.9405 5.15272 64.4934 5.49803C64.0908 5.81331 63.7639 6.21489 63.537 6.6732C63.3207 7.12005 63.2075 7.6097 63.2056 8.10611C63.2056 9.02281 63.4859 9.77119 64.0344 10.3257C64.5829 10.881 65.3102 11.2424 66.2156 11.4228L67.9753 11.8105C68.3585 11.8751 68.7402 11.9908 69.0978 12.1591C69.2887 12.2365 69.4164 12.4296 69.4164 12.649C69.4164 12.8429 69.3142 13.0232 69.0978 13.1788C68.8807 13.3335 68.5238 13.4365 68.0647 13.4365C67.5834 13.4447 67.107 13.3386 66.6747 13.1269C66.2648 12.9291 65.8832 12.6775 65.5401 12.3785C65.3896 12.2519 65.2161 12.1555 65.0292 12.0945C64.8256 12.0299 64.5829 12.0945 64.3154 12.3139L63.3461 13.0495C63.2142 13.1446 63.1119 13.2751 63.051 13.4259C62.9901 13.5766 62.9731 13.7416 63.002 13.9016C63.0523 14.2247 63.3206 14.5463 63.818 14.9212C65.0405 15.7466 66.4878 16.1748 67.9625 16.1475C68.649 16.1564 69.3328 16.0606 69.9905 15.8635C70.5545 15.693 71.0849 15.4266 71.5586 15.076C71.9793 14.7529 72.337 14.3397 72.5789 13.8625C72.8123 13.3932 72.9344 12.8764 72.9358 12.3522C72.9465 11.8811 72.8507 11.4136 72.6556 10.9847C72.4628 10.6098 72.2036 10.2722 71.8907 9.98985ZM81.5825 12.6753C81.5328 12.5872 81.4631 12.512 81.3789 12.4558C81.2947 12.3997 81.1984 12.3642 81.0979 12.3522C80.8943 12.3522 80.6899 12.4168 80.5239 12.5326C80.2537 12.7101 79.9413 12.8128 79.6185 12.8301C79.5163 12.8301 79.4021 12.8173 79.2999 12.791C79.1893 12.7688 79.0875 12.7151 79.0069 12.6362C78.905 12.5413 78.8226 12.4275 78.7642 12.3011C78.6922 12.1117 78.6575 11.9101 78.662 11.7075V7.68007H81.5442C81.7126 7.67607 81.8727 7.60652 81.9905 7.48621C82.0503 7.43242 82.0983 7.36674 82.1312 7.29339C82.1642 7.22003 82.1816 7.1406 82.1821 7.06017V5.35752C82.1832 5.27496 82.1667 5.19311 82.1337 5.11745C82.1006 5.04178 82.0518 4.97403 81.9905 4.9187C81.8749 4.80461 81.7194 4.73994 81.557 4.73837H78.6748V1.98827C78.6794 1.90651 78.6659 1.82473 78.6351 1.74884C78.6043 1.67296 78.557 1.60486 78.4967 1.54946C78.3861 1.44464 78.2403 1.38488 78.0879 1.3819H75.8436C75.6827 1.37877 75.527 1.43894 75.4101 1.54946C75.2912 1.66492 75.2226 1.82259 75.2192 1.98827V4.73837H73.9434C73.8631 4.73616 73.7835 4.75242 73.7105 4.7859C73.6376 4.81939 73.5733 4.86919 73.5226 4.93148C73.4184 5.04919 73.3598 5.20032 73.3573 5.35752V7.06092C73.3573 7.21571 73.4204 7.37125 73.5226 7.48696C73.5712 7.55158 73.6351 7.60312 73.7086 7.63696C73.782 7.67079 73.8627 7.68586 73.9434 7.68082H75.2192V12.4694C75.2067 13.0379 75.3198 13.6021 75.5506 14.1217C75.7562 14.5464 76.047 14.9242 76.4049 15.2316C76.7618 15.5284 77.1825 15.735 77.6161 15.8642C78.0664 16.0039 78.5354 16.0736 79.0069 16.0709C79.6267 16.0696 80.2423 15.9692 80.8304 15.7733C81.3759 15.5914 81.87 15.2817 82.2715 14.8701C82.3935 14.7447 82.4678 14.5807 82.4817 14.4063C82.4955 14.2319 82.448 14.0582 82.3474 13.9151L81.5825 12.6753ZM93.7359 4.73687H91.5171C91.4403 4.73657 91.3642 4.75248 91.2939 4.78355C91.2236 4.81463 91.1607 4.86016 91.1091 4.9172C91.0518 4.97506 91.0065 5.04368 90.9758 5.11912C90.9451 5.19456 90.9297 5.27532 90.9303 5.35676V5.62727C90.6514 5.30256 90.3084 5.03906 89.9227 4.85333C89.3155 4.55882 88.6469 4.41279 87.9722 4.42729C87.2663 4.42734 86.5674 4.56645 85.9153 4.83668C85.2632 5.1069 84.6708 5.50296 84.1718 6.00221C83.645 6.52987 83.2286 7.15723 82.947 7.84763C82.6298 8.61204 82.4736 9.43361 82.4879 10.2611C82.4747 11.0929 82.6309 11.9186 82.947 12.6881C83.228 13.3719 83.6488 14.0045 84.159 14.5335C84.6506 15.0408 85.2394 15.4439 85.8901 15.7189C86.5408 15.9938 87.2402 16.135 87.9466 16.134C88.6198 16.1465 89.2869 16.0052 89.8972 15.7207C90.2804 15.5276 90.6373 15.2699 90.9175 14.9468V15.2308C90.919 15.3886 90.9807 15.5389 91.0904 15.6493C91.1997 15.7602 91.3486 15.8231 91.5044 15.8244H93.7359C93.8906 15.8246 94.039 15.7637 94.149 15.6549C94.2589 15.5461 94.3214 15.3982 94.3227 15.2436V5.35752C94.3244 5.27908 94.3106 5.20108 94.2821 5.12798C94.2536 5.05488 94.211 4.98811 94.1567 4.93148C94.1061 4.86901 94.0419 4.81903 93.9689 4.78541C93.896 4.75179 93.8162 4.73469 93.7359 4.73687ZM90.7395 11.3198C90.6225 11.6315 90.4448 11.9168 90.2165 12.1591C89.9869 12.3918 89.7194 12.5836 89.4253 12.7264C89.1148 12.8724 88.7743 12.9432 88.4313 12.933C88.0864 12.933 87.755 12.8557 87.4492 12.7264C87.1486 12.5884 86.876 12.3961 86.6453 12.1591C86.417 11.9168 86.2392 11.6315 86.1223 11.3198C85.8804 10.6572 85.8804 9.93039 86.1223 9.26776C86.2395 8.95999 86.4173 8.67891 86.6453 8.44123C86.8752 8.20905 87.1427 8.01594 87.4492 7.87393C87.7575 7.73398 88.0927 7.66344 88.4313 7.66729C88.7754 7.66729 89.1067 7.73191 89.4253 7.87318C89.7191 8.01594 89.9866 8.19627 90.2165 8.42921C90.4457 8.67416 90.6245 8.94466 90.7395 9.25499C91.0069 9.91729 91.0069 10.6575 90.7395 11.3198ZM105.916 12.5333L104.64 11.552C104.398 11.3589 104.168 11.307 103.964 11.3844C103.785 11.4614 103.624 11.5759 103.492 11.7203C103.213 12.0582 102.887 12.3538 102.523 12.5979C102.141 12.8173 101.719 12.921 101.286 12.8947C100.787 12.9003 100.3 12.7492 99.8919 12.4627C99.4819 12.1745 99.1713 11.7663 99.003 11.2943C98.8872 10.9711 98.827 10.6307 98.8249 10.2874C98.8249 9.93875 98.8753 9.59011 99.003 9.25499C99.118 8.94466 99.284 8.66139 99.5132 8.42845C99.7431 8.19627 100.011 8.00241 100.304 7.87318C100.616 7.72952 100.955 7.65494 101.298 7.65452C101.732 7.63892 102.161 7.74624 102.536 7.96409C102.903 8.20444 103.23 8.50054 103.505 8.84172C103.632 8.98373 103.785 9.09945 103.964 9.17759C104.168 9.25499 104.398 9.20314 104.627 9.00928L105.903 8.04149C106.055 7.9378 106.183 7.78301 106.234 7.60267C106.27 7.50615 106.284 7.40279 106.276 7.30011C106.267 7.19743 106.235 7.09801 106.183 7.00908C105.691 6.2409 105.016 5.60662 104.219 5.16291C103.377 4.68577 102.37 4.44007 101.247 4.44007C100.456 4.44028 99.6722 4.59363 98.9391 4.89165C98.2388 5.17753 97.6017 5.59885 97.0645 6.13145C96.5256 6.65912 96.1003 7.29149 95.8149 7.98964C95.2153 9.46721 95.2153 11.1204 95.8149 12.5979C96.108 13.2945 96.5287 13.9271 97.0645 14.4433C98.1808 15.5371 99.6845 16.1449 101.247 16.134C102.37 16.134 103.377 15.889 104.219 15.4111C105.023 14.9669 105.703 14.328 106.196 13.5529C106.248 13.4664 106.28 13.3691 106.288 13.2684C106.297 13.1678 106.283 13.0665 106.247 12.9721C106.186 12.7941 106.07 12.6403 105.916 12.5333ZM117.724 14.8303L114.217 9.68027L117.215 5.71818C117.285 5.62777 117.333 5.52229 117.355 5.41011C117.377 5.29793 117.372 5.18215 117.342 5.07199C117.291 4.91795 117.151 4.74964 116.781 4.74964H114.409C114.272 4.7535 114.138 4.78413 114.013 4.83981C113.866 4.91355 113.746 5.03088 113.669 5.17568L111.271 8.53215H110.697V0.593692C110.699 0.515299 110.685 0.437321 110.657 0.364217C110.629 0.291114 110.586 0.224319 110.532 0.167653C110.476 0.113206 110.411 0.0703515 110.338 0.0415842C110.266 0.0128168 110.189 -0.00128766 110.111 9.23097e-05H107.892C107.736 0.00308186 107.586 0.06263 107.471 0.167653C107.412 0.221128 107.365 0.28706 107.334 0.360719C107.303 0.434378 107.289 0.513938 107.293 0.593692V15.2308C107.293 15.3984 107.356 15.5539 107.471 15.6568C107.526 15.7114 107.592 15.7543 107.664 15.783C107.737 15.8118 107.814 15.8259 107.892 15.8244H110.111C110.267 15.8214 110.417 15.7619 110.532 15.6568C110.586 15.6002 110.629 15.5334 110.657 15.4603C110.685 15.3872 110.699 15.3092 110.697 15.2308V11.3589H111.335L113.949 15.3728C114.102 15.6568 114.396 15.8372 114.715 15.8372H117.202C117.584 15.8372 117.737 15.6568 117.801 15.5021C117.846 15.3927 117.862 15.2738 117.849 15.1563C117.835 15.0389 117.792 14.9267 117.724 14.8303ZM62.3768 4.73687H59.8898C59.7978 4.73148 59.7058 4.74601 59.6199 4.77947C59.5341 4.81293 59.4565 4.86452 59.3924 4.93073C59.28 5.04517 59.2008 5.18801 59.1632 5.34399L57.3262 12.1847H56.8806L54.9173 5.34399C54.8798 5.19938 54.8148 5.06338 54.7257 4.9435C54.6715 4.87781 54.6033 4.82514 54.526 4.78937C54.4488 4.75361 54.3645 4.73566 54.2794 4.73687H51.7029C51.3723 4.73687 51.1679 4.84056 51.0785 5.05997C51.0147 5.25307 51.0147 5.47323 51.0785 5.66634L54.2283 15.2827C54.2794 15.4247 54.356 15.5667 54.471 15.6696C54.5987 15.7861 54.764 15.85 54.9421 15.8372H56.269L56.154 16.1475L55.861 17.0379C55.7708 17.3084 55.6055 17.5541 55.3764 17.7344C55.1644 17.8973 54.9036 17.9839 54.6363 17.9801C54.4071 17.9801 54.1779 17.9283 53.9736 17.8374C53.7641 17.7465 53.567 17.6296 53.3867 17.4895C53.2229 17.3726 53.0267 17.3095 52.8255 17.3092H52.7999C52.6846 17.3149 52.5726 17.3498 52.4744 17.4107C52.3762 17.4715 52.2951 17.5563 52.2386 17.657L51.4482 18.8187C51.1296 19.3221 51.3077 19.6452 51.5121 19.8256C51.9337 20.2151 52.4338 20.51 52.9787 20.6904C53.5822 20.8965 54.2157 21.0011 54.8534 21C55.988 21 56.9445 20.6904 57.671 20.0713C58.4298 19.4051 58.9829 18.5363 59.2654 17.5669L62.9133 5.66634C62.99 5.45971 63.0027 5.2403 62.9261 5.03367C62.8622 4.89165 62.721 4.73687 62.3768 4.73687Z" fill="white"/>
</svg>
